#!OML:ASF E:\acrobat2\Project_11_07_03\Capture day 1\Session 1\Acrobat.ASF
:FULLY-SPECIFIED
:DEGREES
589
root 10.7617 6.03395 11.6502 -88.4081 4.19708 179.222
lowerback -4.78803 -3.31379 4.83301
upperback 0.315037 -4.73542 0.763369
thorax 2.68084 -2.30226 -2.23191
lowerneck 4.6707 -14.5353 -10.9508
upperneck -28.9678 -15.3489 29.4349
head -5.64505 -8.26215 12.3454
rclavicle -3.97569e-014 -2.77771e-014
rhumerus 31.7665 -33.3244 -32.2705
rradius 120.164
rwrist -22.9233
rhand -19.534 -42.8062
rfingers 7.12502
rthumb 6.78971 -72.6774
lclavicle -3.97569e-014 -2.77771e-014
lhumerus 16.4086 48.1426 1.61413
lradius 108.449
lwrist 34.1964
lhand -5.12082 -25.3258
lfingers 7.12502
lthumb 20.6773 3.59277
rfemur 1.19536 16.0998 -9.11899
rtibia 8.74653e-015
rfoot 32.1245 -23.8176
rtoes 24.7764
lfemur -11.1164 -21.4517 2.5661
ltibia 18.3037
lfoot 37.2344 11.4717
ltoes 18.4741
590
root 10.764 6.03472 11.6526 -88.4044 4.22151 179.2
lowerback -4.78501 -3.31149 4.79096
upperback 0.31681 -4.72947 0.755936
thorax 2.68408 -2.29968 -2.21587
lowerneck 4.72363 -14.4868 -11.0366
upperneck -29.0254 -15.2954 29.3463
head -5.68597 -8.21941 12.3453
rclavicle 4.45278e-014 -2.17545e-014
rhumerus 31.7768 -33.3636 -32.2362
rradius 120.135
rwrist -22.9631
rhand -19.5483 -42.7753
rfingers 7.12502
rthumb 6.77588 -72.6468
lclavicle 4.45278e-014 -2.17545e-014
lhumerus 16.4807 48.1518 1.66419
lradius 108.425
lwrist 34.1753
lhand -4.97515 -25.5388
lfingers 7.12502
lthumb 20.8173 3.36446
rfemur 1.20212 16.0773 -9.15466
rtibia 1.74931e-014
rfoot 32.0004 -23.9474
rtoes 25.3903
lfemur -11.1595 -21.438 2.5552
ltibia 18.3445
lfoot 37.2658 11.3745
ltoes 18.3593
591
root 10.7662 6.03561 11.6547 -88.3984 4.23081 179.181
lowerback -4.78072 -3.30824 4.76302
upperback 0.317716 -4.72319 0.753861
thorax 2.68508 -2.29687 -2.20197
lowerneck 4.77313 -14.4484 -11.1056
upperneck -29.0841 -15.2457 29.3114
head -5.72075 -8.18539 12.3609
rclavicle 4.77083e-014 -2.98488e-015
rhumerus 31.7817 -33.4108 -32.2072
rradius 120.108
rwrist -23.0079
rhand -19.5614 -42.7377
rfingers 7.12502
rthumb 6.76325 -72.6097
lclavicle 4.77083e-014 -2.98488e-015
lhumerus 16.5488 48.1636 1.70651
lradius 108.395
lwrist 34.1542
lhand -4.87597 -25.7105
lfingers 7.12502
lthumb 20.9126 3.18228
rfemur 1.20372 16.0564 -9.17317
rtibia 8.74653e-015
rfoot 31.9045 -24.0306
rtoes 25.8885
lfemur -11.2058 -21.4154 2.56186
ltibia 18.3866
lfoot 37.2855 11.3007
ltoes 18.2533
592
root 10.7683 6.03649 11.6568 -88.3942 4.21451 179.161
lowerback -4.77313 -3.30513 4.75944
upperback 0.31831 -4.71866 0.759778
thorax 2.68253 -2.2948 -2.19318
lowerneck 4.82173 -14.4141 -11.1474
upperneck -29.1496 -15.2028 29.2389
head -5.76398 -8.15304 12.3591
rclavicle -6.36111e-014 -3.74585e-015
rhumerus 31.7835 -33.4597 -32.1879
rradius 120.084
rwrist -23.0531
rhand -19.564 -42.7151
rfingers 7.12502
rthumb 6.76068 -72.5871
lclavicle -6.36111e-014 -3.74585e-015
lhumerus 16.6096 48.1727 1.74049
lradius 108.363
lwrist 34.135
lhand -4.87014 -25.7877
lfingers 7.12502
lthumb 20.9182 3.10443
rfemur 1.20749 16.0364 -9.16117
rtibia 2.74323e-014
rfoot 31.8305 -24.0695
rtoes 26.2841
lfemur -11.2489 -21.3931 2.59678
ltibia 18.4244
lfoot 37.292 11.2628
ltoes 18.2159
593
root 10.7705 6.03733 11.6587 -88.3946 4.17943 179.137
lowerback -4.76122 -3.30352 4.77297
upperback 0.319699 -4.71714 0.771084
thorax 2.67731 -2.29413 -2.1882
lowerneck 4.80716 -14.4134 -11.1559
upperneck -29.1499 -15.1964 29.2648
head -5.75841 -8.15023 12.3684
rclavicle -1.04958e-013 2.48667e-014
rhumerus 31.7862 -33.5071 -32.1741
rradius 120.063
rwrist -23.0964
rhand -19.5558 -42.7204
rfingers 7.12502
rthumb 6.76865 -72.5922
lclavicle -1.04958e-013 2.48667e-014
lhumerus 16.6644 48.1783 1.76734
lradius 108.334
lwrist 34.1191
lhand -4.9565 -25.755
lfingers 7.12502
lthumb 20.8352 3.14624
rfemur 1.21877 16.0163 -9.12522
rtibia 1.15295e-014
rfoot 31.7376 -24.0898
rtoes 26.6648
lfemur -11.284 -21.3804 2.65201
ltibia 18.454
lfoot 37.2944 11.2446
ltoes 18.2269
594
root 10.7728 6.03814 11.6603 -88.4021 4.13108 179.109
lowerback -4.7431 -3.30413 4.79885
upperback 0.322484 -4.71915 0.78532
thorax 2.66907 -2.29516 -2.18686
lowerneck 4.74747 -14.4374 -11.1393
upperneck -29.1031 -15.2179 29.3564
head -5.71813 -8.16901 12.3834
rclavicle 1.90833e-014 5.08143e-015
rhumerus 31.7874 -33.5511 -32.1653
rradius 120.044
rwrist -23.1358
rhand -19.5363 -42.7375
rfingers 7.12502
rthumb 6.78744 -72.6087
lclavicle 1.90833e-014 5.08143e-015
lhumerus 16.7206 48.184 1.79573
lradius 108.311
lwrist 34.104
lhand -5.09731 -25.6258
lfingers 7.12502
lthumb 20.6999 3.29022
rfemur 1.24072 15.9951 -9.06975
rtibia -9.54166e-015
rfoot 31.6489 -24.0903
rtoes 26.9604
lfemur -11.3098 -21.3702 2.72047
ltibia 18.4758
lfoot 37.3119 11.2193
ltoes 18.2292
595
root 10.775 6.0388 11.6616 -88.4139 4.07968 179.077
lowerback -4.72313 -3.30636 4.82936
upperback 0.326309 -4.72348 0.798788
thorax 2.66028 -2.29728 -2.1889
lowerneck 4.6709 -14.4744 -11.1115
upperneck -29.0353 -15.2549 29.4827
head -5.66163 -8.19962 12.403
rclavicle 7.95139e-015 3.0501e-015
rhumerus 31.7836 -33.5879 -32.1652
rradius 120.029
rwrist -23.1663
rhand -19.5073 -42.7504
rfingers 7.12502
rthumb 6.81547 -72.6207
lclavicle 7.95139e-015 3.0501e-015
lhumerus 16.778 48.1904 1.83044
lradius 108.295
lwrist 34.0856
lhand -5.25093 -25.4402
lfingers 7.12502
lthumb 20.5523 3.49191
rfemur 1.26935 15.9737 -9.00926
rtibia -8.34896e-015
rfoot 31.5449 -24.1031
rtoes 27.2143
lfemur -11.3273 -21.3553 2.79022
ltibia 18.4905
lfoot 37.3428 11.1891
ltoes 18.2162
596
root 10.777 6.03915 11.6624 -88.4257 4.0359 179.048
lowerback -4.70732 -3.30942 4.85582
upperback 0.330815 -4.72879 0.808388
thorax 2.65444 -2.29981 -2.19304
lowerneck 4.60012 -14.5137 -11.0739
upperneck -28.9743 -15.2945 29.6044
head -5.60945 -8.23202 12.4206
rclavicle -8.90555e-014 3.24827e-014
rhumerus 31.7807 -33.6146 -32.1725
rradius 120.016
rwrist -23.1849
rhand -19.4736 -42.7512
rfingers 7.12502
rthumb 6.84794 -72.6204
lclavicle -8.90555e-014 3.24827e-014
lhumerus 16.8351 48.1961 1.86799
lradius 108.282
lwrist 34.0652
lhand -5.38933 -25.251
lfingers 7.12502
lthumb 20.4193 3.69537
rfemur 1.29763 15.9538 -8.9581
rtibia -1.23246e-014
rfoot 31.439 -24.1336
rtoes 27.4357
lfemur -11.3384 -21.337 2.84925
ltibia 18.4988
lfoot 37.3731 11.1625
ltoes 18.1753
597
root 10.7785 6.03906 11.6626 -88.4367 3.99933 179.022
lowerback -4.6987 -3.31276 4.88039
upperback 0.337112 -4.73471 0.81445
thorax 2.6543 -2.30245 -2.20037
lowerneck 4.55768 -14.5435 -11.0437
upperneck -28.9437 -15.324 29.6881
head -5.57823 -8.25563 12.4338
rclavicle 7.63333e-014 -9.67833e-015
rhumerus 31.7865 -33.6321 -32.1852
rradius 120.002
rwrist -23.1937
rhand -19.435 -42.7337
rfingers 7.12502
rthumb 6.88524 -72.6017
lclavicle 7.63333e-014 -9.67833e-015
lhumerus 16.8929 48.2022 1.90411
lradius 108.266
lwrist 34.049
lhand -5.4872 -25.1059
lfingers 7.12502
lthumb 20.3253 3.85054
rfemur 1.32332 15.937 -8.91498
rtibia -1.31198e-014
rfoot 31.3697 -24.1522
rtoes 27.5563
lfemur -11.3424 -21.3173 2.8968
ltibia 18.5016
lfoot 37.4009 11.1408
ltoes 18.1268
